<svg width="100" height="100" viewBox="0 0 100 100" fill="none" xmlns="http://www.w3.org/2000/svg">
<path d="M42.3 29.72C42.3 23.84 46.6 22.46 49.01 22.5C53.9 22.5 55.26 26.57 55.66 28.74C56.16 31.43 55.67 37.87 55.44 40.83V40.92C55.76 40.84 56.11 40.8 56.48 40.8H64.3C67.46 40.8 70.04 43.37 70.04 46.54C70.04 48.17 69.51 49.65 68.49 50.69C70.6 51.63 72.06 53.59 72.06 55.85C72.06 57.92 71.12 59.74 69.3 60.75C70.97 61.78 72.06 63.52 72.06 65.47C72.06 67.72 70.96 69.67 68.82 70.61C69.59 71.39 70.04 72.56 70.04 74.24C70.04 77.04 68.07 79.31 64.3 79.31H56.48C56.39 79.31 56.3 79.31 56.21 79.31H49.86C28.71 79.66 27.48 65.95 27.48 60.37C27.48 49.92 32.13 46.81 36.27 44.05C38.23 42.75 40.07 41.52 41.25 39.63C42.24 38.04 42.3 36.59 42.3 29.72Z" fill="#FFC83D"/>
<path d="M55.85 40.8C53.78 40.86 47.74 42.01 47.74 46.82C47.74 49.35 48.69 50.78 49.83 51.57C48.69 52.07 47.68 53.96 47.68 56.29C47.68 58.88 49.83 60.78 49.83 60.78C49.83 60.78 47.68 62.87 47.68 65.37C47.68 67.26 48.51 68.66 49.83 69.61C49.11 70.01 47.68 71.42 47.68 73.8C47.68 76.64 50.33 79.02 55.52 79.23C52.99 78.76 51.76 76.44 51.76 74.24C51.76 73.52 52.03 72.35 52.71 71.32H63.96C64.51 71.32 64.97 70.87 64.97 70.31C64.97 69.75 64.51 69.29 63.96 69.29H52.99C52.17 68.22 51.76 66.83 51.76 65.47C51.76 64.63 52.08 63.27 52.87 62.08H63.96C64.51 62.08 64.97 61.63 64.97 61.07C64.97 60.51 64.51 60.05 63.96 60.05H53.32C52.27 58.94 51.76 57.37 51.76 55.85C51.76 55.12 52 54.01 52.57 52.96H63.96C64.51 52.96 64.97 52.51 64.97 51.95C64.97 51.39 64.51 50.93 63.96 50.93H53.47C52.33 49.73 51.76 47.93 51.76 46.54C51.76 44.9 52.66 41.27 55.85 40.84V40.8Z" fill="#D67D00"/>
</svg>
