<svg width="100" height="100" viewBox="0 0 100 100" fill="none" xmlns="http://www.w3.org/2000/svg">
<path d="M27 52.09L22.07 39.28C21.56 37.96 21.87 36.43 22.89 35.41L34.93 23.36C35.95 22.34 37.46 22.03 38.81 22.55L51.62 27.47C52.59 27.85 53.48 28.41 54.22 29.15L82.54 57.48C83.97 58.91 83.97 61.2 82.54 62.61L62.13 83.02C60.7 84.45 58.41 84.45 57 83.02L28.68 54.7C27.94 53.96 27.38 53.09 27 52.09ZM39.7 40.2C41.46 38.44 41.46 35.61 39.7 33.85C37.94 32.09 35.11 32.09 33.35 33.85C31.59 35.61 31.59 38.44 33.35 40.2C35.11 41.94 37.97 41.94 39.7 40.2Z" fill="black"/>
</svg>
