<svg
  width="100"
  height="100"
  viewBox="0 0 100 100"
  fill="none"
  xmlns="http://www.w3.org/2000/svg"
>
  <path
    d="M56.98 72.1C56.98 77.97 52.68 79.36 50.27 79.31C45.38 79.31 44.02 75.24 43.62 73.08C43.12 70.38 43.61 63.94 43.84 60.98V60.89C43.52 60.97 43.17 61.01 42.8 61.01H34.98C31.82 61.01 29.24 58.44 29.24 55.27C29.24 53.64 29.77 52.17 30.8 51.12C28.68 50.18 27.22 48.22 27.22 45.97C27.22 43.89 28.16 42.07 29.98 41.06C28.31 40.03 27.22 38.3 27.22 36.34C27.22 34.09 28.32 32.15 30.46 31.2C29.7 30.42 29.24 29.26 29.24 27.57C29.24 24.77 31.21 22.5 34.98 22.5H42.8C42.89 22.5 42.98 22.5 43.07 22.5H49.42C70.57 22.15 71.8 35.87 71.8 41.44C71.8 51.89 67.15 55 63.01 57.76C61.05 59.06 59.21 60.29 58.03 62.18C57.04 63.77 56.98 65.22 56.98 72.1Z"
    fill="#FFC83D"
  />
  <path
    d="M46.26 32.52H35.32C34.77 32.52 34.31 32.06 34.31 31.5C34.31 30.95 34.77 30.49 35.32 30.49H46.57C47.25 29.46 47.52 28.29 47.52 27.57C47.52 25.37 46.29 23.05 43.76 22.58C48.95 22.8 51.6 25.17 51.6 28.02C51.6 30.4 50.17 31.8 49.45 32.21C50.77 33.15 51.6 34.55 51.6 36.44C51.6 38.94 49.45 41.03 49.45 41.03C49.45 41.03 51.6 42.93 51.6 45.53C51.6 47.86 50.59 49.74 49.45 50.24C50.59 51.03 51.54 52.46 51.54 54.99C51.54 59.81 45.5 60.95 43.43 61.01V60.97C46.62 60.55 47.52 56.92 47.52 55.27C47.52 53.88 46.95 52.09 45.81 50.88H35.32C34.77 50.88 34.31 50.42 34.31 49.86C34.31 49.3 34.77 48.85 35.32 48.85H46.71C47.28 47.8 47.52 46.69 47.52 45.97C47.52 44.44 47.01 42.87 45.96 41.76H35.32C34.77 41.76 34.31 41.3 34.31 40.74C34.31 40.19 34.77 39.73 35.32 39.73H46.41C47.2 38.54 47.52 37.18 47.52 36.34C47.52 35.39 47.23 33.79 46.26 32.52Z"
    fill="#D67D00"
  />
</svg>
