<svg
  width="100"
  height="100"
  viewBox="0 0 100 100"
  fill="none"
  xmlns="http://www.w3.org/2000/svg"
>
  <path
    d="M71.37 29.57C72.12 30.5 72.24 31.79 71.68 32.84L60.97 52.73L72.37 50.19C73.96 49.84 75.54 50.84 75.89 52.43C76.25 54.02 75.24 55.6 73.65 55.95L55.95 59.89C54.82 60.14 53.66 59.71 52.96 58.79C52.26 57.87 52.17 56.62 52.71 55.61L63.1 36.31L50.26 40.16C48.7 40.63 47.05 39.75 46.59 38.19C46.12 36.63 47 34.98 48.56 34.51L68.23 28.61C69.37 28.27 70.61 28.65 71.37 29.57Z"
    fill="#00A6ED"
  />
  <path
    d="M34.66 50.12C34.66 49.04 35.54 48.16 36.63 48.16H50.39C51.17 48.16 51.87 48.61 52.19 49.31C52.5 50.01 52.38 50.84 51.87 51.42L40.96 63.89H50.39C51.48 63.89 52.36 64.77 52.36 65.86C52.36 66.94 51.48 67.82 50.39 67.82H36.63C35.86 67.82 35.15 67.37 34.84 66.67C34.52 65.97 34.64 65.14 35.15 64.56L46.06 52.09H36.63C35.54 52.09 34.66 51.21 34.66 50.12Z"
    fill="#83CBFF"
  />
  <path
    d="M22.94 55.46C23.25 54.42 24.35 53.83 25.39 54.14L35.22 57.09C35.94 57.3 36.47 57.9 36.6 58.63C36.73 59.36 36.43 60.1 35.84 60.55L27.56 66.76L33.08 67.86C34.14 68.08 34.83 69.11 34.62 70.18C34.41 71.24 33.37 71.93 32.31 71.72L22.47 69.75C21.71 69.6 21.11 69.02 20.94 68.26C20.77 67.5 21.06 66.72 21.68 66.25L30.36 59.74L24.26 57.91C23.22 57.59 22.63 56.5 22.94 55.46Z"
    fill="#AEDDFF"
  />
</svg>
